<?xml version="1.0" encoding="utf-8"?>
<svg xmlns="http://www.w3.org/2000/svg" viewBox="-76.174 -123.571 1002.812 765.294" xmlns:bx="https://boxy-svg.com">
  <defs>
    <linearGradient id="color-0" bx:pinned="true" gradientUnits="userSpaceOnUse">
      <title>Water</title>
      <stop style="stop-color: rgb(64, 190, 234);"/>
    </linearGradient>
    <linearGradient id="color-2" gradientUnits="userSpaceOnUse">
      <title>Shallows</title>
      <stop style="stop-color: rgb(42, 155, 195);"/>
    </linearGradient>
    <linearGradient id="color-1" bx:pinned="true" gradientUnits="userSpaceOnUse">
      <title>Land</title>
      <stop style="stop-color: #d8d8d8;"/>
    </linearGradient>
    <bx:export>
      <bx:file format="png"/>
    </bx:export>
  </defs>
  <rect x="-20.825" y="-26.837" width="892.423" height="578.247" style="stroke: rgb(0, 0, 0); fill: url(&quot;#color-0&quot;);"/>
  <path stroke-width="0" d="M 649.569 365.362 C 648.263 370.203 645.461 374.407 640.259 378.057 C 633.029 383.131 619.033 387.822 606.404 389.907 C 592.285 392.237 576.005 392.461 559.007 389.907 C 539.679 387.002 516.013 381.052 496.375 371.286 C 496.081 371.14 495.785 370.991 495.488 370.839 C 492.101 371.383 488.199 371.765 482.833 371.286 C 459.873 369.238 408.269 359.845 376.189 349.28 C 346.749 339.586 320.732 320.622 296.629 312.04 C 276.287 304.797 252.128 303.933 240.768 298.498 C 233.822 295.174 230.521 292.412 228.072 287.495 C 225.427 282.182 226.078 271.951 226.38 267.182 C 226.576 264.075 228.926 263.936 228.072 260.411 C 226.228 252.792 207.758 234.472 202.681 219.784 C 197.615 205.126 196.446 185.599 197.603 172.387 C 198.542 161.651 200.876 154.284 206.066 145.303 C 212.136 134.8 222.935 122.287 233.997 113.987 C 245.184 105.593 257.519 98.276 272.93 95.367 C 291.019 91.952 314.545 92.561 337.255 98.752 C 363.742 105.972 394.36 135.372 421.893 141.071 C 446.708 146.207 472.009 133.989 494.682 135.993 C 515.811 137.86 535.978 142.584 553.928 151.228 C 571.791 159.829 595.563 181.132 602.172 187.622 C 604.814 190.216 603.612 189.465 605.558 192.7 C 610.481 200.885 631.198 231.137 636.027 246.869 C 639.74 258.963 639.424 268.715 637.72 279.031 C 636.022 289.308 622.512 300.345 625.871 308.654 C 629.828 318.446 662.067 323.327 668.19 331.506 C 672.23 336.904 671.078 343.633 669.882 348.434 C 668.796 352.796 666.628 356.979 662.265 359.437 C 659.502 360.993 654.931 361.983 650.089 362.523 C 649.979 363.526 649.806 364.483 649.569 365.362 Z M -13.146 290.034 C 2.711 286.965 24.002 289.015 41.022 291.727 C 57.192 294.303 71.312 298.676 86.727 305.269 C 103.443 312.417 119.538 321.359 137.51 334.046 C 158.885 349.135 196.011 383.335 206.066 392.446 C 209.956 395.97 209.936 395.986 211.991 398.37 C 214.418 401.186 215.758 404.564 219.609 408.527 C 225.254 414.338 235.579 418.573 245 429.686 C 259.191 446.428 287.777 488.16 294.09 507.553 C 298.055 519.734 297.571 526.115 294.09 536.33 C 289.715 549.17 272.151 570.577 264.467 577.803 C 260.088 581.921 256.316 581.093 253.464 583.728 C 250.75 586.234 250.959 590.908 247.539 593.038 C 243.149 595.771 231.553 596.618 227.226 596.423 C 224.702 596.309 225.257 594.985 222.148 594.73 C 214.807 594.131 193.125 600.185 176.443 598.116 C 156.972 595.701 135.597 589.313 112.118 577.803 C 100.825 572.266 87.974 565.383 74.822 557.443 C 73.761 558.703 72.196 559.819 69.799 560.875 C 56.076 566.919 -8.803 569.68 -24.995 565.954 C -32.887 564.138 -34.716 562.09 -37.691 556.643 C -41.905 548.93 -43.275 531.947 -42.769 519.403 C -42.251 506.562 -38.707 490.967 -34.305 480.469 C -31.951 474.855 -28.033 469.035 -24.681 464.762 C -39.561 443.694 -52.368 422.575 -59.697 409.373 C -67.638 395.068 -69.596 388.072 -71.546 377.211 C -73.447 366.623 -74.48 356.015 -71.546 345.049 C -68.233 332.666 -60.314 316.159 -50.387 306.961 C -40.706 297.993 -27.315 292.776 -13.146 290.034 Z M 513.302 437.304 C 556.338 436.373 649.246 432.068 696.12 442.382 C 731.498 450.167 764.376 467.178 778.219 480.469 C 786.796 488.704 786.578 496.22 788.376 505.861 C 790.409 516.768 789.772 536.016 788.376 543.101 C 787.637 546.848 784.614 547.415 784.99 549.872 C 785.46 552.944 791.879 555.375 793.454 560.029 C 795.442 565.906 795.605 577.176 793.454 583.728 C 791.522 589.611 787.466 594.159 782.451 598.116 C 776.816 602.561 770.584 605.636 760.445 608.273 C 745.588 612.137 722.603 618.373 697.813 615.044 C 665.12 610.653 616.95 582.691 579.32 572.725 C 545.044 563.647 511.037 554.819 481.14 555.797 C 454.318 556.675 420.823 562.755 407.505 574.417 C 397.493 583.184 402.914 603.939 396.502 609.965 C 391.441 614.721 381.875 614.637 376.189 613.351 C 371.082 612.196 367.271 609.383 363.493 604.041 C 358.028 596.312 352.008 577.961 349.951 566.8 C 348.23 557.459 345.759 552.514 349.951 541.409 C 357.255 522.06 390.35 475.323 410.044 459.31 C 424.328 447.695 436.396 446.077 452.363 442.382 C 470.322 438.226 485.536 437.905 513.302 437.304 Z M 853.547 -84.066 C 856.649 -84.692 864.375 -85.67 868.782 -84.066 C 873.092 -82.497 877.577 -79.269 879.785 -74.756 C 882.402 -69.403 881.636 -64.056 881.477 -52.75 C 881.18 -31.627 873.269 20.913 873.014 52.201 C 872.793 79.22 873.753 108.601 878.092 124.99 C 880.919 135.667 887.888 138.677 889.941 146.996 C 892.164 156 888.498 163.805 889.941 177.465 C 892.163 198.499 908.774 250.795 906.869 265.489 C 905.978 272.355 903.338 274.058 899.251 276.492 C 894.242 279.475 883.979 281.521 877.245 279.877 C 870.421 278.211 867.676 270.116 858.625 266.335 C 845.459 260.835 816.196 261.55 801.071 254.486 C 788.304 248.523 779.153 240.146 771.448 229.941 C 763.492 219.403 759.709 198.67 754.52 191.854 C 751.55 187.953 749.451 189.325 746.057 185.929 C 740.525 180.394 739.146 169.296 724.897 157.999 C 696.872 135.78 583.731 86.703 557.314 68.282 C 545.554 60.082 543.272 59.285 539.54 50.508 C 534.658 39.026 535.774 10.639 536.154 1.418 C 536.344 -3.177 538.011 -4.788 537.847 -7.045 C 537.72 -8.794 537.334 -9.861 536.154 -11.277 C 534.518 -13.242 529.464 -13.939 527.691 -17.202 C 525.442 -21.339 524.546 -28.666 525.998 -35.822 C 527.899 -45.196 531.945 -61.331 542.079 -68.831 C 554.31 -77.883 581.922 -82.218 599.633 -80.68 C 616.15 -79.246 636.677 -60.759 645.337 -62.06 C 650.451 -62.828 649.667 -70.161 653.801 -72.217 C 658.717 -74.661 666.013 -76.555 674.114 -73.909 C 686.327 -69.92 708.775 -40.35 719.819 -40.054 C 727.477 -39.849 730.727 -52.9 736.746 -55.289 C 742.092 -57.41 748.731 -57.131 753.674 -55.289 C 758.602 -53.452 763.708 -48.276 766.37 -44.286 C 768.658 -40.856 767.324 -35.392 769.755 -33.283 C 772.154 -31.202 776.75 -30.211 780.758 -31.59 C 786.312 -33.501 791.502 -45.558 799.379 -48.518 C 808.067 -51.783 825.726 -49.967 831.541 -48.518 C 834.532 -47.773 835.369 -44.183 836.619 -45.132 C 838.744 -46.746 836.642 -61.594 839.158 -67.985 C 841.446 -73.794 847.508 -80.015 850.161 -82.373 C 851.58 -83.634 851.77 -83.707 853.547 -84.066 Z M 208.606 -89.144 C 218.34 -90.13 222.928 -86.266 233.997 -85.759 C 249.996 -85.025 283.669 -92.408 298.322 -87.451 C 308.938 -83.86 315.737 -75.702 319.481 -67.985 C 323.047 -60.635 323.987 -51.829 321.174 -42.593 C 317.531 -30.629 303.838 -12.108 293.244 -2.813 C 284.053 5.249 274.769 9.245 262.774 12.421 C 257.62 13.786 250.649 14.184 243.505 14.3 C 243.443 14.521 243.377 14.741 243.307 14.961 C 240.861 22.594 231.134 33.34 223.84 39.506 C 217.177 45.138 210.289 49.28 201.835 51.355 C 196.739 52.605 189.967 53.193 183.594 53.088 C 181.12 57.328 178.415 61.604 175.597 65.743 C 163.834 83.014 141.728 108.554 127.353 120.758 C 121.655 125.595 115.953 129.484 110.69 132.399 C 107.967 143.883 105.25 155.945 101.115 163.923 C 93.731 178.171 84.356 190.787 74.878 198.625 C 66.929 205.198 61.589 206.651 49.486 210.474 C 30.651 216.424 -18.626 229.523 -33.459 227.402 C -41.027 226.32 -43.712 222.494 -46.155 218.092 C -48.772 213.376 -49.216 204.711 -47.847 199.471 C -46.609 194.73 -41.065 195.195 -39.384 187.622 C -35.75 171.255 -41.236 114.67 -44.462 87.749 C -46.942 67.059 -56.957 50.318 -54.618 36.966 C -52.725 26.16 -40.009 21.848 -37.691 11.575 C -35.041 -0.167 -45.23 -21.353 -42.769 -30.744 C -41.074 -37.215 -38.02 -40.148 -31.766 -43.44 C -22.37 -48.384 4.666 -53.291 13.938 -51.903 C 19.37 -51.091 18.875 -45.627 24.095 -45.132 C 32.678 -44.318 49.195 -54.852 64.721 -56.982 C 82.883 -59.473 115.836 -57.764 127.353 -56.982 C 132.947 -56.602 133.183 -54.068 137.51 -55.289 C 144.585 -57.285 155.139 -70.098 166.287 -75.602 C 178.52 -81.642 196.473 -87.915 208.606 -89.144 Z M 483.679 36.966 C 484.581 38.192 485.241 39.469 485.709 40.768 C 494.875 48.223 502.817 55.862 507.378 62.358 C 514.756 72.866 516.767 85.587 515.841 92.827 C 515.185 97.961 512.408 101.389 508.224 103.83 C 502.944 106.911 493.281 107.514 484.525 107.216 C 474.388 106.871 462.067 104.387 450.67 100.445 C 438.387 96.196 424.329 82.718 413.429 81.825 C 404.518 81.094 399.442 92.624 389.731 90.288 C 374.64 86.659 340.704 56.914 331.331 42.045 C 324.927 31.887 324.632 20.165 326.252 13.268 C 327.474 8.069 332.134 4.987 335.563 2.265 C 338.679 -0.209 340.336 -1.732 345.719 -2.813 C 355.253 -4.729 376.708 -5.535 393.116 -2.813 C 407.94 -0.354 424.06 3.966 439.491 11.044 C 457.058 17.557 477.354 28.371 483.679 36.966 Z M 351.644 395.831 C 355.009 401.438 354.532 407.958 353.337 412.759 C 352.25 417.121 349.702 421.336 345.719 423.762 C 340.987 426.644 333.108 429.067 325.406 427.147 C 321.087 426.071 315.047 423.135 309.06 419.459 C 306 420.039 302.542 419.921 298.322 418.684 C 282.202 413.96 236.984 382.017 228.072 368.747 C 223.237 361.546 224.836 355.21 226.38 350.127 C 227.771 345.546 231.815 342.285 235.69 339.124 C 239.87 335.713 244.625 331.599 250.925 330.66 C 258.671 329.506 270.756 331.632 279.701 335.738 C 289.173 340.086 301.932 353.381 305.939 356.898 C 307.576 358.334 306.888 358.069 308.478 359.437 C 312.144 362.59 327.489 370.488 331.331 377.211 C 331.526 377.553 331.711 377.899 331.884 378.25 C 339.937 383.371 348.439 390.492 351.644 395.831 Z M 757.06 288.341 C 771.777 286.944 805.032 290.8 816.306 295.112 C 822.695 297.556 825.159 300.266 827.309 304.422 C 829.606 308.863 830.638 314.327 829.002 321.35 C 826.561 331.823 809.138 349.78 806.996 361.976 C 805.254 371.894 813.287 382.395 812.074 389.06 C 811.166 394.053 808.329 397.645 804.457 400.063 C 800.009 402.841 790.653 403.832 785.836 403.449 C 782.24 403.163 781.427 400.347 777.373 400.063 C 770.912 399.611 755.845 406.631 748.596 405.141 C 742.935 403.978 738.429 400.69 735.9 395.831 C 732.835 389.944 733.562 374.782 734.207 370.44 C 734.508 368.414 736.04 368.815 735.9 367.054 C 735.633 363.703 729.416 357.688 727.436 350.127 C 724.701 339.682 721.596 316.786 724.051 307.808 C 725.644 301.979 728.827 299.846 733.361 296.805 C 739.027 293.005 746.637 289.33 757.06 288.341 Z M 118.889 176.619 C 125.341 175.523 139.966 173.774 147.666 176.619 C 154.529 179.155 159.001 184.074 163.747 191.007 C 169.837 199.903 176.748 217.557 178.982 228.248 C 180.737 236.646 181.422 242.983 178.982 250.254 C 176.209 258.518 168.198 270.314 161.208 274.799 C 155.219 278.642 149.114 279.616 140.895 278.185 C 129.359 276.175 105.795 268.624 97.73 257.025 C 89.58 245.304 89.678 221.361 92.652 207.935 C 95.186 196.491 105.252 184.669 110.426 180.005 C 113.514 177.22 114.816 177.311 118.889 176.619 Z" style="stroke-width: 2px; fill: url(&quot;#color-2&quot;);"/>
  <path fill="rgb(255,0,0)" stroke="rgb(255,0,0)" stroke-width="0" d="M 245.846 112.294 C 251.077 111.337 269.142 108.583 279.701 112.294 C 281.831 113.043 284.114 114.14 286.447 115.473 C 293.2 115.777 301.411 116.759 308.478 119.065 C 323.408 123.937 351.226 137.483 360.383 147.043 C 368.805 146.657 377.223 146.703 384.653 147.842 C 389.039 148.514 393.859 149.451 398.94 150.584 C 399.611 150 399.878 149.845 401.58 149.535 C 406.978 148.553 422.517 148.117 437.128 149.535 C 456.898 151.453 487.227 160.859 511.609 163.077 C 535.159 165.219 567.879 158.949 581.013 163.077 C 588.459 165.418 591.307 169.441 593.708 174.08 C 595.561 177.658 596.271 182.886 595.961 187.294 C 608.475 189.668 620.417 195.292 628.41 200.318 C 635.145 204.553 640.093 208.776 642.798 214.706 C 645.593 220.832 646.594 229.756 644.491 236.712 C 642.226 244.205 636.192 252.843 628.41 257.871 C 619.472 263.646 596.939 260.969 592.016 267.182 C 588.16 272.046 594.71 281.383 593.708 287.495 C 592.784 293.134 586.069 296.408 586.937 302.73 C 588.202 311.94 606.998 326.76 610.636 338.278 C 613.742 348.111 612.622 360.118 610.636 367.054 C 609.173 372.161 607.105 375.624 603.018 378.057 C 598.009 381.04 589.66 383.81 581.013 381.443 C 572.128 379.011 560.246 367.353 548.806 358.276 C 538.883 359.629 526.724 359.98 516.688 359.437 C 498.916 358.476 480.115 354.349 460.827 347.588 C 440.573 340.488 406.796 327.07 395.698 316.446 C 368.825 310.821 338.741 303.4 322.02 298.498 C 304.048 293.228 293.545 289.377 283.087 283.263 C 277.046 279.732 271.218 276.445 266.886 272.196 C 256.437 268.084 240.532 256.204 233.151 245.176 C 228.698 238.523 225.078 228.538 222.994 219.39 C 222.702 219.241 222.419 219.09 222.148 218.938 C 213.121 213.869 205.435 208.29 200.988 199.471 C 195.951 189.482 193.67 170.452 195.91 160.538 C 197.682 152.697 202.783 146.305 208.606 142.764 C 214.56 139.142 225.867 143.758 231.458 139.378 C 237.467 134.671 239.597 117.48 242.461 113.987 C 243.753 112.411 243.669 112.693 245.846 112.294 Z M 156.13 -117.921 C 175.413 -121.06 193.755 -109.695 201.835 -111.15 C 205.932 -111.888 204.414 -115.096 208.606 -116.228 C 217.073 -118.516 245.125 -119.963 257.696 -116.228 C 267.73 -113.247 274.923 -106.108 280.548 -100.147 C 281.734 -98.89 282.845 -97.591 283.872 -96.26 C 294.758 -97.017 305.759 -97.061 315.249 -94.222 C 331.881 -89.247 353.568 -74.536 360.108 -64.599 C 364.545 -57.857 363.249 -50.214 361.8 -44.286 C 360.449 -38.756 357.721 -33.557 352.49 -29.898 C 345.807 -25.221 335.016 -23.412 322.02 -21.434 C 312.901 -20.046 298.372 -18.347 284.597 -17.452 C 283.331 -14.442 281.303 -11.825 278.009 -9.584 C 271.946 -5.462 259.235 -2.551 249.232 -1.121 C 238.946 0.35 224.885 1.237 217.069 -1.121 C 216.853 -1.186 216.639 -1.253 216.427 -1.322 C 210.915 4.601 209.189 8.843 203.527 14.114 C 195.895 21.219 184.684 25.879 175.597 35.274 C 164.847 46.386 159.913 65.429 144.281 78.439 C 125.089 94.411 87.302 103.935 62.652 119.891 C 63.533 124.513 63.543 129.927 62.182 135.146 C 60.105 143.11 54.173 155.375 47.312 163.693 C 47.218 164.371 47.096 165.016 46.947 165.616 C 45.861 169.978 44.076 173.125 39.33 176.619 C 31.843 182.13 11.669 189.602 0.396 191.854 C -8.586 193.648 -16.98 193.83 -23.302 191.854 C -28.226 190.315 -32.742 187.471 -35.341 183.615 C -37.738 181.938 -39.785 179.793 -41.076 177.465 C -43.693 172.749 -44.552 165.391 -42.769 158.845 C -40.6 150.883 -27.809 140.768 -25.842 133.454 C -24.381 128.024 -25.547 122.508 -27.534 119.065 C -29.27 116.058 -33.95 117.484 -35.998 113.141 C -39.822 105.032 -41.384 75.603 -39.384 64.051 C -38.019 56.168 -30.489 52.294 -30.92 47.123 C -31.331 42.178 -39.225 39.439 -41.076 33.581 C -43.311 26.511 -43.508 13.386 -41.076 6.497 C -39.068 0.805 -35.15 -1.213 -30.073 -6.199 C -22.963 -13.183 -6.726 -25.055 -0.45 -31.59 C 3.555 -35.761 2.805 -37.611 7.167 -41.747 C 14.471 -48.671 26.824 -58.974 44.408 -68.831 C 70.374 -83.387 127.693 -113.292 156.13 -117.921 Z M 372.803 12.421 C 380.807 11.215 419.325 10.788 438.821 14.114 C 456.006 17.046 473.093 23.567 484.525 29.349 C 493.207 33.739 500.165 37.222 503.992 43.737 C 507.906 50.402 508.745 62.759 507.378 69.129 C 506.323 74.042 504.916 77.459 499.76 80.132 C 491.19 84.574 469.133 88.063 452.363 85.21 C 433.055 81.926 396.351 62.788 390.577 57.28 C 388.659 55.449 391.092 53.707 389.731 53.048 C 387.36 51.899 377.808 57.519 372.803 56.433 C 367.979 55.387 362.574 51.65 360.108 47.123 C 357.373 42.103 356.628 32.439 358.415 26.81 C 360.068 21.6 366.794 16.278 369.418 14.114 C 370.863 12.922 370.253 12.806 372.803 12.421 Z M -36.844 317.118 C -26.697 315.983 34.779 316.6 59.643 323.889 C 79.036 329.574 95.976 338.648 104.501 350.127 C 111.957 360.167 106.474 377.768 112.118 386.521 C 117.067 394.196 125.26 399.073 134.124 401.756 C 144.054 404.762 160.684 399.999 169.672 401.756 C 176.312 403.054 178.623 404.688 184.907 408.527 C 194.328 414.282 212.469 425.525 221.301 436.458 C 229.514 446.622 232.287 464.215 237.382 471.159 C 240.591 475.531 243.334 474.34 246.693 478.776 C 252.211 486.067 260.827 502.393 265.313 516.017 C 270.067 530.457 275.369 553.667 273.777 563.414 C 272.823 569.255 270.468 570.808 266.159 574.417 C 259.955 579.616 243.866 582.064 236.536 589.652 C 229.172 597.276 229.425 612.487 222.148 620.122 C 214.969 627.653 202.417 633.016 193.371 635.357 C 185.637 637.358 177.119 635.797 171.365 635.357 C 167.118 635.032 165.357 633.799 161.208 633.664 C 155.756 633.487 149.387 637.344 140.895 635.357 C 128.135 632.371 97.022 613.212 90.959 609.119 C 88.944 607.759 89.636 608.075 88.42 606.58 C 85.97 603.569 82.404 594.452 76.57 589.652 C 69.638 583.949 57.913 577.816 47.793 576.11 C 37.607 574.393 23.032 580.123 15.631 579.496 C 10.875 579.092 10.094 576.632 5.475 576.11 C -1.391 575.335 -14.786 579.851 -23.302 577.803 C -31.305 575.878 -39.505 570.8 -44.462 565.107 C -49.196 559.669 -51.38 552.926 -52.926 544.794 C -54.798 534.942 -55.093 520.939 -52.926 509.246 C -50.699 497.232 -40.762 486.769 -39.384 473.698 C -37.872 459.368 -46.448 433.816 -46.155 426.301 C -46.032 423.173 -43.752 423.197 -44.462 421.223 C -45.615 418.016 -55.226 415.684 -58.004 409.373 C -61.789 400.777 -57.673 381.729 -59.697 370.44 C -61.438 360.726 -69.156 351.397 -68.161 345.049 C -67.383 340.092 -62.262 336.087 -58.85 334.046 C -55.967 332.32 -52.37 334.277 -49.54 332.353 C -46.011 329.953 -42.644 321.076 -40.23 318.811 C -38.888 317.552 -39.62 317.428 -36.844 317.118 Z M 415.122 464.388 C 434.734 459.404 456.596 463.139 476.062 466.081 C 494.913 468.929 514.912 481.673 530.23 481.316 C 542.792 481.022 548.507 471.745 562.392 469.466 C 581.332 466.358 616.139 466.771 636.874 469.466 C 649.841 471.152 662.083 478.414 671.572 480.775 C 674.813 480.665 678.157 480.571 681.55 480.495 C 686.683 477.755 687.689 470.092 694.427 467.774 C 705.16 464.082 730.577 463.776 741.825 467.774 C 750.387 470.817 756.136 477.824 759.599 483.855 C 762.693 489.244 758.99 498.25 762.984 501.629 C 767.501 505.449 780.451 500.318 787.529 503.322 C 794.534 506.293 801.531 510.913 805.303 519.403 C 810.468 531.027 811.86 558.069 808.689 571.878 C 806.129 583.023 797.676 593.632 792.607 598.116 C 789.386 600.966 785.953 599.171 783.297 601.502 C 780.117 604.292 782.056 611.572 775.68 615.044 C 763.397 621.731 710.888 626.061 696.12 623.507 C 688.369 622.167 687.829 615.077 682.578 615.044 C 676.297 615.004 668.278 624.939 660.572 626.893 C 653.028 628.806 646.559 628.759 636.874 626.893 C 623.401 624.297 600.691 611.813 586.091 608.273 C 574.457 605.451 567.324 608.271 555.621 604.887 C 540.447 600.499 512.191 588.714 502.299 580.342 C 496.055 575.057 498.717 566.481 492.989 564.261 C 485.429 561.331 466.111 565.104 456.595 571.878 C 446.734 578.898 446.966 599.936 435.435 606.58 C 422.174 614.221 390.445 612.956 377.881 609.965 C 369.741 608.027 365.377 604.952 361.8 598.962 C 357.363 591.532 361.937 570.863 356.722 565.954 C 352.52 561.997 342.763 567.714 337.255 565.954 C 332.196 564.336 327.026 561.171 324.56 556.643 C 321.825 551.623 320.055 543.95 322.867 536.33 C 326.905 525.386 341.823 509.671 355.876 498.243 C 371.739 485.343 394.606 469.602 415.122 464.388 Z M 795.993 295.112 C 802.398 294.083 808.171 293.404 812.921 295.112 C 817.374 296.714 821.716 299.909 823.923 304.422 C 826.541 309.775 827.068 320.663 825.616 326.428 C 824.428 331.148 820.527 334.811 817.999 337.431 C 816.017 339.485 814.654 338.805 812.074 341.663 C 806.895 347.399 798.267 370.007 789.222 376.365 C 781.736 381.626 770.481 382.762 763.831 381.443 C 758.381 380.362 753.601 376.66 751.135 372.133 C 748.4 367.113 748.9 355.572 749.442 351.82 C 749.719 349.906 751.469 350.083 751.135 348.434 C 750.493 345.271 741.535 338.885 739.286 333.199 C 737.064 327.585 736.049 319.662 737.593 314.579 C 738.984 309.999 742.619 305.746 746.903 303.576 C 751.656 301.168 761.98 301.379 765.523 301.883 C 767.394 302.15 766.883 303.575 768.909 303.576 C 773.443 303.578 788.118 296.378 795.993 295.112 Z M 117.197 186.776 C 123.233 186.011 150.537 186.818 159.516 190.161 C 165.344 192.331 168.369 195.315 170.519 199.471 C 172.816 203.912 173.428 209.414 172.211 216.399 C 170.475 226.363 164.541 247.892 156.13 254.486 C 148.834 260.206 136.146 259.308 127.353 257.871 C 119.017 256.51 109.211 253.283 104.501 246.869 C 99.404 239.928 97.898 226.102 99.423 216.399 C 100.958 206.629 110.53 192.184 113.811 188.468 C 115.218 186.875 114.901 187.066 117.197 186.776 Z M 259.388 344.202 C 264.951 344.137 285.659 348.723 296.629 354.359 C 307.307 359.844 320.161 369.59 324.56 377.211 C 327.815 382.852 327.448 389.337 326.252 394.139 C 325.166 398.5 322.722 402.708 318.635 405.142 C 313.625 408.125 305.419 410.881 296.629 408.527 C 283.697 405.063 255.169 385.78 248.385 375.518 C 244.086 369.014 245.149 361.981 246.693 356.898 C 248.084 352.318 253.642 347.857 256.003 345.895 C 257.386 344.746 257.191 344.228 259.388 344.202 Z M 636.874 -90.837 C 652.886 -94.157 670.178 -90.917 687.656 -85.759 C 707.276 -79.969 730.187 -57.364 748.596 -55.289 C 764.043 -53.548 777.849 -65.287 790.915 -67.138 C 802.446 -68.773 811.836 -68.851 823.077 -67.138 C 835.427 -65.256 849.581 -60.971 862.011 -55.289 C 874.714 -49.481 892.252 -42.732 898.405 -32.437 C 904.111 -22.89 902.11 -4.905 900.098 3.111 C 898.737 8.532 895.208 11.201 892.48 14.114 C 890.087 16.67 886.655 14.766 884.863 20.039 C 880.061 34.167 879.498 99.574 886.556 133.454 C 892.997 164.371 917.446 196.014 922.104 216.399 C 925.121 229.603 924.602 237.598 922.104 246.869 C 919.673 255.889 914.633 265.912 907.715 271.414 C 900.804 276.909 887.608 280.826 880.631 279.877 C 875.119 279.127 872.177 275.507 867.935 270.567 C 862.03 263.689 856.8 243.123 850.161 239.251 C 845.444 236.499 841.272 242.866 834.926 240.944 C 824.858 237.894 802.093 222.702 795.147 213.013 C 790.034 205.883 793.96 198.631 790.068 191.007 C 785.253 181.574 774.972 167.712 765.523 161.384 C 756.97 155.656 745.618 157.278 736.746 152.92 C 727.838 148.545 718.453 142.377 712.201 135.146 C 706.177 128.178 707.314 117.045 699.506 110.601 C 689.667 102.482 659.044 99.253 652.955 94.52 C 650.255 92.422 653.073 90.933 650.416 88.596 C 644.278 83.196 615.485 75.169 603.018 66.59 C 592.434 59.305 586.529 51.121 578.473 42.045 C 569.865 32.346 558.254 23.022 553.082 9.882 C 547.362 -4.651 548.296 -28.63 548.004 -42.593 C 547.786 -53.027 547.278 -61.669 549.697 -67.985 C 551.623 -73.016 554.723 -76.817 559.007 -78.988 C 563.76 -81.396 572.544 -82.224 577.627 -80.68 C 582.207 -79.289 586.412 -74.254 588.63 -71.37 C 590.238 -69.28 588.586 -65.717 591.169 -65.446 C 597.136 -64.818 620.706 -87.484 636.874 -90.837 Z M 704.584 222.324 C 707.686 221.697 715.412 220.719 719.819 222.324 C 724.129 223.892 728.672 227.478 730.822 231.634 C 733.119 236.074 733.71 243.76 732.515 248.561 C 731.428 252.923 728.769 257.146 724.897 259.564 C 720.449 262.342 711.627 264.138 706.277 262.95 C 701.306 261.846 696.024 258.042 693.581 253.64 C 690.964 248.924 690.344 240.102 691.888 235.019 C 693.28 230.439 698.837 225.979 701.198 224.016 C 702.582 222.867 702.807 222.682 704.584 222.324 Z M 819.692 425.455 C 822.794 424.828 830.52 423.851 834.926 425.455 C 839.237 427.023 843.759 430.481 845.929 434.765 C 848.338 439.518 848.907 448.253 847.622 453.385 C 846.498 457.875 843.988 461.962 840.005 464.388 C 835.272 467.27 825.378 469.06 819.692 467.774 C 814.585 466.618 809.439 462.866 806.996 458.463 C 804.379 453.747 803.624 445.136 805.303 439.843 C 806.912 434.772 813.683 429.311 816.306 427.147 C 817.752 425.955 817.914 425.813 819.692 425.455 Z M 320.328 31.042 C 323.43 30.416 331.156 29.438 335.563 31.042 C 339.873 32.611 344.395 36.068 346.565 40.352 C 348.974 45.105 349.543 53.84 348.258 58.972 C 347.134 63.462 344.513 67.557 340.641 69.975 C 336.193 72.753 327.371 74.549 322.02 73.361 C 317.05 72.257 311.791 68.578 309.325 64.051 C 306.59 59.03 305.989 49.141 307.632 43.737 C 309.062 39.033 314.581 34.697 316.942 32.735 C 318.325 31.585 318.55 31.4 320.328 31.042 Z M 178.136 240.944 C 181.238 240.318 188.964 239.34 193.371 240.944 C 197.681 242.513 202.224 246.098 204.374 250.254 C 206.671 254.695 207.262 262.38 206.066 267.182 C 204.98 271.544 202.321 275.767 198.449 278.185 C 194.001 280.962 185.179 282.758 179.829 281.57 C 174.858 280.466 169.576 276.662 167.133 272.26 C 164.516 267.544 163.896 258.722 165.44 253.64 C 166.832 249.059 172.389 244.599 174.75 242.637 C 176.134 241.487 176.359 241.303 178.136 240.944 Z" style="fill: rgb(166, 209, 48); stroke: rgb(129, 151, 57); stroke-width: 2px;"/>
</svg>